<svg xmlns="http://www.w3.org/2000/svg" viewBox="0 0 100 100">
  <!-- Fundo azul com cantos arredondados -->
  <rect width="100" height="100" rx="15" ry="15" fill="#4285f4"/>
  
  <!-- Grade 3x3 de pontos conectados -->
  <!-- Pontos -->
  <circle cx="25" cy="25" r="4" fill="white"/>
  <circle cx="50" cy="25" r="4" fill="white"/>
  <circle cx="75" cy="25" r="4" fill="white"/>
  <circle cx="25" cy="50" r="4" fill="white"/>
  <circle cx="50" cy="50" r="4" fill="white"/>
  <circle cx="75" cy="50" r="4" fill="white"/>
  <circle cx="25" cy="75" r="4" fill="white"/>
  <circle cx="50" cy="75" r="4" fill="white"/>
  <circle cx="75" cy="75" r="4" fill="white"/>
  
  <!-- Linhas horizontais -->
  <line x1="29" y1="25" x2="46" y2="25" stroke="white" stroke-width="2.5" stroke-linecap="round"/>
  <line x1="54" y1="25" x2="71" y2="25" stroke="white" stroke-width="2.5" stroke-linecap="round"/>
  <line x1="29" y1="50" x2="46" y2="50" stroke="white" stroke-width="2.5" stroke-linecap="round"/>
  <line x1="54" y1="50" x2="71" y2="50" stroke="white" stroke-width="2.5" stroke-linecap="round"/>
  <line x1="29" y1="75" x2="46" y2="75" stroke="white" stroke-width="2.5" stroke-linecap="round"/>
  <line x1="54" y1="75" x2="71" y2="75" stroke="white" stroke-width="2.5" stroke-linecap="round"/>
  
  <!-- Linhas verticais -->
  <line x1="25" y1="29" x2="25" y2="46" stroke="white" stroke-width="2.5" stroke-linecap="round"/>
  <line x1="50" y1="29" x2="50" y2="46" stroke="white" stroke-width="2.5" stroke-linecap="round"/>
  <line x1="75" y1="29" x2="75" y2="46" stroke="white" stroke-width="2.5" stroke-linecap="round"/>
  <line x1="25" y1="54" x2="25" y2="71" stroke="white" stroke-width="2.5" stroke-linecap="round"/>
  <line x1="50" y1="54" x2="50" y2="71" stroke="white" stroke-width="2.5" stroke-linecap="round"/>
  <line x1="75" y1="54" x2="75" y2="71" stroke="white" stroke-width="2.5" stroke-linecap="round"/>
</svg>

